<?xml version="1.0" encoding="iso-8859-1"?>
<!DOCTYPE svg PUBLIC "-//W3C//DTD SVG 1.1//EN" "http://www.w3.org/Graphics/SVG/1.1/DTD/svg11.dtd">
<svg 
 version="1.1" xmlns="http://www.w3.org/2000/svg" xmlns:xlink="http://www.w3.org/1999/xlink" x="0px" y="0px" width="512px"
	 height="512px" viewBox="0 0 512 512" enable-background="new 0 0 512 512" xml:space="preserve"
><g id="2069a460dcf28295e231f3111e054dc8"><g></g><g fill="#000000"><path display="inline" d="M256,0.5C114.893,0.5,0.5,114.893,0.5,256S114.893,511.5,256,511.5c141.107,0,255.5-114.393,255.5-255.5
		S397.107,0.5,256,0.5z M256,43.083c79.752,0,149.357,44.099,185.832,109.167L256,170.833L70.168,152.251
		C106.642,87.183,176.248,43.083,256,43.083z M256,468.917c-117.403,0-212.917-95.514-212.917-212.917
		c0-22.248,3.443-43.702,9.802-63.875h34.378c0.212,40.051-8.25,85.167,71.269,85.167c59.026,0,77.669-31.077,86.269-64.541h20.526
		c6.305,33.463,22.148,64.541,88.141,64.541c71.123,0,68.449-45.116,70.657-85.167h34.99c6.358,20.173,9.802,41.627,9.802,63.875
		C468.917,373.403,373.403,468.917,256,468.917z M181.479,383.75h149.042v21.292H181.479V383.75z"></path></g></g></svg>